<?xml version="1.0" encoding="utf-8"?>
<!-- Generator: Adobe Illustrator 27.0.0, SVG Export Plug-In . SVG Version: 6.00 Build 0)  -->
<svg version="1.1" id="Livello_1" xmlns="http://www.w3.org/2000/svg" xmlns:xlink="http://www.w3.org/1999/xlink" x="0px" y="0px"
	 viewBox="0 0 25 50" style="enable-background:new 0 0 25 50;" xml:space="preserve">
<style type="text/css">
	.st0{fill:none;}
	.st1{fill:#D2D4D8;}
	.st2{fill:#FFFFFF;}
	.st3{fill:url(#SVGID_1_);}
	.st4{fill:#1D1D1B;}
	.st5{fill:#D2401E;}
	.st6{font-family:'Oswald-Medium';}
	.st7{font-size:8.4447px;}
</style>
<pattern  x="784.2" y="63" width="8" height="5" patternUnits="userSpaceOnUse" id="Nuovo_pattern" viewBox="0.6 -5.6 8 5" style="overflow:visible;">
	<g>
		<rect x="0.6" y="-5.6" class="st0" width="8" height="5"/>
		<rect x="8" y="-1.2" class="st1" width="1.2" height="1.2"/>
		<rect x="0" y="-1.2" class="st1" width="1.2" height="1.2"/>
		<rect x="8" y="-6.2" class="st1" width="1.2" height="1.2"/>
		<rect x="4" y="-3.7" class="st1" width="1.2" height="1.2"/>
		<rect x="0" y="-6.2" class="st1" width="1.2" height="1.2"/>
	</g>
</pattern>
<g>
	<path class="st2" d="M-3173.3-1469.7c-74.9,0-147.6-14.7-216-43.6c-66.1-27.9-125.4-68-176.4-118.9c-51-51-91-110.3-118.9-176.4
		c-28.9-68.4-43.6-141-43.6-216s14.7-147.6,43.6-216c27.9-66.1,68-125.4,118.9-176.4c51-51,110.3-91,176.4-118.9
		c68.4-28.9,141-43.6,216-43.6c74.9,0,147.6,14.7,216,43.6c66.1,27.9,125.4,68,176.4,118.9c51,51,91,110.3,118.9,176.4
		c28.9,68.4,43.6,141,43.6,216s-14.7,147.6-43.6,216c-27.9,66.1-68,125.4-118.9,176.4c-51,51-110.3,91-176.4,118.9
		C-3025.7-1484.4-3098.3-1469.7-3173.3-1469.7z"/>
	<path d="M-3173.3-2534.4c68.9,0,135.6,13.5,198.4,40c60.7,25.7,115.2,62.4,162.1,109.3c46.9,46.9,83.6,101.4,109.3,162.1
		c26.6,62.8,40,129.6,40,198.4s-13.5,135.6-40,198.4c-25.7,60.7-62.4,115.2-109.3,162.1c-46.9,46.9-101.4,83.6-162.1,109.3
		c-62.8,26.6-129.6,40-198.4,40s-135.6-13.5-198.4-40c-60.7-25.7-115.2-62.4-162.1-109.3c-46.9-46.9-83.6-101.4-109.3-162.1
		c-26.6-62.8-40-129.6-40-198.4s13.5-135.6,40-198.4c25.7-60.7,62.5-115.2,109.3-162.1c46.9-46.9,101.4-83.6,162.1-109.3
		C-3308.9-2520.9-3242.1-2534.4-3173.3-2534.4 M-3173.3-2624.4c-331.3,0-599.9,268.6-599.9,599.9s268.6,599.9,599.9,599.9
		s599.9-268.6,599.9-599.9S-2842-2624.4-3173.3-2624.4L-3173.3-2624.4z"/>
</g>
<image style="overflow:visible;" width="1178" height="548" xlink:href="../../../../../../../../Desktop/pizza/hover-people.png"  transform="matrix(0.5444 0 0 0.5444 480.8773 527.1018)">
</image>
<pattern  id="SVGID_1_" xlink:href="#Nuovo_pattern" patternTransform="matrix(1.6667 0 0 1.6667 5862.3906 5362.3701)">
</pattern>
<rect x="684.2" y="-37" class="st3" width="500" height="500"/>
<g>
	<g>
		<polygon class="st4" points="-3477.8,-2400.9 -3424.8,-1999.5 -3575.3,-2049.6 -3273.7,-1598.1 -3349.6,-1924.2 -3198.4,-1874 		
			"/>
		<polygon class="st4" points="-2870.1,-2400.9 -3148.2,-1874 -2998.3,-1924.2 -3073,-1598.1 -2772.6,-2049.6 -2923.1,-1999.5 		"/>
		<polygon class="st4" points="-3173.3,-1974.4 -3098.1,-2124.9 -3248.6,-2124.9 		"/>
	</g>
</g>
<path class="st2" d="M25,50C11.2,50,0,38.8,0,25S11.2,0,25,0V50z"/>
<text transform="matrix(-1.836970e-16 -1 1 -1.836970e-16 16.7313 33.2336)" class="st5 st6 st7">NEXT</text>
</svg>
