<?xml version="1.0" encoding="utf-8"?>
<!-- Generator: Adobe Illustrator 27.0.0, SVG Export Plug-In . SVG Version: 6.00 Build 0)  -->
<svg version="1.1" id="Livello_1" xmlns="http://www.w3.org/2000/svg" xmlns:xlink="http://www.w3.org/1999/xlink" x="0px" y="0px"
	 viewBox="0 0 56 46" style="enable-background:new 0 0 56 46;" xml:space="preserve">
<style type="text/css">
	.st0{fill:#B7903C;}
</style>
<path class="st0" d="M1.4,45c0-2.9,0-5.9,0-8.8c0-2.9,0.1-5.7,0.2-8.2c0.3-8.8,1.7-15.5,4.3-20C8.4,3.3,13.1,1,20,1l2.1,7.6
	c-3.9,0.2-6.4,1.6-7.6,4.3s-1.7,6.2-1.7,10.7h10.4V45H1.4z M32.8,45c0-2.9,0-5.9,0-8.8c0-2.9,0.1-5.7,0.2-8.2
	c0.3-8.8,1.7-15.5,4.3-20C39.8,3.3,44.5,1,51.4,1l2.1,7.6c-3.9,0.2-6.4,1.6-7.6,4.3c-1.2,2.6-1.7,6.2-1.7,10.7h10.4V45H32.8z"/>
</svg>
