<?xml version="1.0" encoding="utf-8"?>
<!-- Generator: Adobe Illustrator 27.0.0, SVG Export Plug-In . SVG Version: 6.00 Build 0)  -->
<svg version="1.1" id="Livello_1" xmlns="http://www.w3.org/2000/svg" xmlns:xlink="http://www.w3.org/1999/xlink" x="0px" y="0px"
	 viewBox="0 0 25 11" style="enable-background:new 0 0 25 11;" xml:space="preserve">
<style type="text/css">
	.st0{fill:#FFFFFF;}
</style>
<path class="st0" d="M21.1,3.7C20.5,3.6,20,3.4,19.5,3c-0.4-0.3-0.8-0.7-1.1-1c-0.9-0.9-1.8-1.8-3.1-1.8c-0.2,0-0.4,0-0.6,0.1
	c-0.8,0.1-1.6,0.6-2.2,1.3c-0.6-0.7-1.3-1.2-2.2-1.3c-0.2,0-0.4-0.1-0.6-0.1c-1.3,0-2.2,0.9-3,1.8C6.3,2.3,5.9,2.7,5.5,3
	C4.9,3.5,4.2,3.7,3.4,3.7c-1,0-1.9-0.4-2.6-1L0.2,2.1v0.8c0,6.8,4.4,7.8,7.1,7.8c1.5,0,2.8-0.3,3.2-0.5c0.8-0.4,1.4-0.9,2-1.5
	c0.5,0.7,1.2,1.2,2,1.5c0.4,0.2,1.7,0.5,3.2,0.5c1,0,2.3-0.1,3.5-0.7c0.2-0.1,0.5-0.3,0.7-0.4c1.7-1,3-3,3-6.8V2.1l-0.6,0.5
	c-0.6,0.6-1.5,1-2.4,1C21.9,3.6,21.1,3.7,21.1,3.7z M21.1,9.3c-1.1,0.6-2.3,0.8-3.5,0.8c-1.5,0-2.7-0.3-3-0.5c-0.8-0.4-1.5-1-2-1.7
	l-0.3-0.4L12,7.9c-0.5,0.7-1.1,1.3-2,1.7C10,9.7,8.8,10,7.3,10c-2.8,0-6.1-1.1-6.4-6.4c0.7,0.5,1.6,0.7,2.5,0.7S5.2,4,5.9,3.5
	c0.4-0.3,0.8-0.7,1.2-1.1C7.9,1.7,8.7,1,9.8,1h0.5c0.8,0.1,1.5,0.6,2,1.4l0.3,0.4l0.3-0.4c0.5-0.8,1.2-1.3,2-1.4h0.5
	c1.1,0,1.8,0.8,2.7,1.6c0.4,0.4,0.8,0.8,1.2,1.1c0.6,0.4,1.3,0.7,2,0.8H22c0.8,0,1.6-0.3,2.3-0.7C24.2,6.4,23.3,8,22,9
	C21.6,9,21.4,9.1,21.1,9.3z"/>
<path class="st0" d="M17.7,11c-1.5,0-2.9-0.3-3.3-0.5c-0.7-0.3-1.4-0.8-1.9-1.4c-0.5,0.6-1.1,1.1-1.9,1.4C10.2,10.7,8.9,11,7.3,11
	C4.6,11,0,10,0,2.9V1.6l0.9,0.9c0.6,0.6,1.5,1,2.4,1c0.7,0,1.4-0.2,2-0.6c0.4-0.3,0.7-0.6,1.1-1c1-1,2-1.9,3.4-1.9
	c0.2,0,0.4,0,0.6,0.1c0.8,0.1,1.5,0.6,2.1,1.2c0.6-0.7,1.3-1.1,2.1-1.2C14.8,0,15,0,15.2,0c1.4,0,2.4,1,3.3,1.8
	c0.4,0.3,0.7,0.7,1.1,1s1,0.5,1.5,0.6h0.7c0.9,0,1.7-0.4,2.3-1L25,1.6v1.3c0,4.2-1.7,6.1-3.1,7c-0.2,0.1-0.5,0.3-0.7,0.4
	C20.3,10.8,19.1,11,17.7,11z M12.5,8.3l0.2,0.2c0.5,0.6,1.1,1.1,1.9,1.5c0.4,0.2,1.7,0.5,3.1,0.5s2.5-0.2,3.4-0.7
	c0.2-0.1,0.5-0.3,0.7-0.4c1.9-1.1,2.9-3.4,2.9-6.5V2.7l-0.2,0.2c-0.7,0.6-1.6,1-2.5,1.1h-0.7c-0.6-0.1-1.2-0.3-1.8-0.7
	c-0.4-0.3-0.8-0.7-1.2-1c-0.8-0.8-1.7-1.7-3-1.7c-0.2,0-0.4,0-0.5,0.1c-0.8,0.1-1.5,0.6-2,1.3h-0.3l-0.2-0.2c-0.6-0.7-1.3-1.1-2-1.3
	c-0.2,0-0.4-0.1-0.5-0.1c-1.2,0-2.1,0.9-3,1.7C6.4,2.5,6,2.9,5.6,3.2C5,3.7,4.2,3.9,3.4,3.9c-1,0-2-0.4-2.7-1.1L0.4,2.7V3
	c0,6.6,4.3,7.6,6.9,7.6c1.5,0,2.8-0.3,3.1-0.5c0.8-0.4,1.4-0.9,1.9-1.5C12.3,8.6,12.5,8.3,12.5,8.3z M17.7,10.3
	c-1.6,0-2.8-0.3-3-0.5c-0.9-0.4-1.6-1-2-1.8l-0.1-0.1L12.4,8c-0.5,0.8-1.2,1.4-2,1.8c-0.3,0.1-1.5,0.5-3,0.5c-2.9,0-6.3-1.1-6.6-6.6
	V3.2L1,3.5C1.7,4,2.5,4.2,3.3,4.2c0.9,0,1.7-0.3,2.4-0.8C6.2,3.1,6.6,2.7,7,2.3c0.9-0.8,1.7-1.6,2.8-1.6h0.5
	c0.8,0.2,1.6,0.7,2.1,1.5l0.1,0.1l0.1-0.1c0.6-0.8,1.3-1.4,2.1-1.5h0.5c1.1,0,1.9,0.8,2.8,1.6l-0.1,0.2L18,2.3
	c0.4,0.4,0.8,0.8,1.2,1.1c0.6,0.4,1.2,0.7,1.9,0.7h0.7c0.8,0,1.5-0.3,2.2-0.7l0.4-0.2v0.5C24.3,6.1,23.5,7.9,22,9
	c-0.2,0.2-0.5,0.3-0.7,0.5C20.3,10,19.1,10.3,17.7,10.3z M12.5,7.1L13,7.8c0.4,0.7,1,1.2,1.8,1.6c0.2,0.1,1.4,0.4,2.9,0.4
	c1.3,0,2.4-0.3,3.4-0.7c0.2-0.1,0.4-0.3,0.6-0.4c1.2-0.9,2-2.5,2.1-4.6c-0.6,0.3-1.3,0.5-2,0.5h-0.7c-0.8-0.1-1.5-0.4-2.1-0.8
	c-0.5-0.3-0.9-0.7-1.2-1.1c-0.8-0.8-1.5-1.5-2.5-1.5h-0.4c-0.7,0.1-1.4,0.6-1.9,1.3l-0.4,0.7L12,2.6c-0.5-0.7-1.2-1.2-1.9-1.3H9.7
	C8.7,1.3,8,2,7.2,2.8C6.8,3.1,6.4,3.5,6,3.8C5.3,4.3,4.3,4.6,3.4,4.6C2.6,4.6,1.9,4.4,1.2,4c0.4,4.7,3.6,5.7,6.2,5.7
	c1.5,0,2.6-0.3,2.9-0.4C11,9,11.6,8.5,12,7.8C12,7.8,12.5,7.1,12.5,7.1z"/>
</svg>
